<?xml version="1.0" encoding="UTF-8"?>
<svg id="Layer_2" data-name="Layer 2" xmlns="http://www.w3.org/2000/svg" viewBox="0 0 482.1 415.79">
  <defs>
    <style>
      .cls-1 {
        fill: #000;
        stroke-width: 0px;
      }
    </style>
  </defs>
  <g id="Layer_1-2" data-name="Layer 1">
    <rect class="cls-1" x="9.02" y="226.55" width="465" height="13.01"/>
    <path class="cls-1" d="M240.12,415.79c-52.27,0-102.9-12.86-143.36-36.51-47.8-27.95-80.48-69.97-94.52-121.52l-2.24-8.22h482.1l-1.74,7.91c-10.47,47.48-39.96,87.68-85.28,116.23-40.91,25.78-93.18,40.7-147.18,42.02-2.6.06-5.19.09-7.78.09ZM17.23,262.56c14.25,44.45,43.88,80.8,86.1,105.49,40.4,23.62,91.64,35.94,144.26,34.64,51.69-1.26,101.61-15.47,140.56-40.02,39.75-25.05,66.42-59.53,77.55-100.11H17.23Z"/>
    <g>
      <path class="cls-1" d="M92.46,314.91c0,3.23.12,5.96.5,9.19h-13.53c.31-2.85.5-5.71.5-9.19v-11.48l-14.28-23.46c-1.12-1.92-2.48-3.97-4.97-7.51h15.7c.68,2.17,1.37,3.79,2.92,6.52l6.89,12.6,6.89-12.54c1.55-2.86,2.42-4.78,2.86-6.58h15.7c-1.8,2.61-4.16,6.15-4.97,7.51l-14.21,23.46v11.48Z"/>
      <path class="cls-1" d="M163.41,272.45c-.37,2.67-.5,4.9-.5,9.37v21.35c0,14.15-8.5,22.16-23.46,22.16-7.7,0-13.97-2.17-17.69-6.08-3.6-3.85-5.46-9.25-5.46-16.2v-21.23c0-4.28-.12-7.01-.5-9.37h13.41c-.37,2.3-.5,4.78-.5,9.37v21.35c0,7.82,3.54,11.55,10.8,11.55s10.99-3.72,10.99-11.55v-21.35c0-4.66-.12-6.58-.5-9.37h13.41Z"/>
      <path class="cls-1" d="M193.57,324.1c-.31-2.17-.99-4.47-2.67-9.19l-5.71-16.51c-.06-.31-1.92-6.08-2.11-6.58q-.68-2.23-.99-3.1c.37,3.91.62,9,.62,12.29v13.47c0,4.28.12,7.01.5,9.62h-12.23c.37-2.79.5-5.4.5-9.62v-32.34c0-3.72-.19-7.01-.5-9.68h16.39c.43,2.67.93,4.66,2.36,8.75l9.31,26.75,9.25-26.75c1.43-4.16,1.92-6.15,2.3-8.75h16.45c-.37,2.98-.5,5.52-.5,9.68v32.34c0,4.72.12,7.14.5,9.62h-12.23c.37-2.85.5-5.21.5-9.62v-13.53c0-1.49.19-6.15.31-8.07q.19-3.29.25-4.22c-1.37,4.84-1.99,7.08-2.79,9.31l-6.02,17.01c-1.55,4.41-2.36,7.14-2.67,9.12h-10.8Z"/>
      <path class="cls-1" d="M283.81,314.91c0,3.23.12,5.96.5,9.19h-13.53c.31-2.85.5-5.71.5-9.19v-11.48l-14.28-23.46c-1.12-1.92-2.48-3.97-4.97-7.51h15.7c.68,2.17,1.37,3.79,2.92,6.52l6.89,12.6,6.89-12.54c1.55-2.86,2.42-4.78,2.86-6.58h15.7c-1.8,2.61-4.16,6.15-4.97,7.51l-14.21,23.46v11.48Z"/>
      <path class="cls-1" d="M354.75,272.45c-.37,2.67-.5,4.9-.5,9.37v21.35c0,14.15-8.5,22.16-23.46,22.16-7.7,0-13.97-2.17-17.69-6.08-3.6-3.85-5.46-9.25-5.46-16.2v-21.23c0-4.28-.12-7.01-.5-9.37h13.41c-.37,2.3-.5,4.78-.5,9.37v21.35c0,7.82,3.54,11.55,10.8,11.55s10.99-3.72,10.99-11.55v-21.35c0-4.66-.12-6.58-.5-9.37h13.41Z"/>
      <path class="cls-1" d="M384.91,324.1c-.31-2.17-.99-4.47-2.67-9.19l-5.71-16.51c-.06-.31-1.92-6.08-2.11-6.58q-.68-2.23-.99-3.1c.37,3.91.62,9,.62,12.29v13.47c0,4.28.12,7.01.5,9.62h-12.23c.37-2.79.5-5.4.5-9.62v-32.34c0-3.72-.19-7.01-.5-9.68h16.39c.43,2.67.93,4.66,2.36,8.75l9.31,26.75,9.25-26.75c1.43-4.16,1.92-6.15,2.3-8.75h16.45c-.37,2.98-.5,5.52-.5,9.68v32.34c0,4.72.12,7.14.5,9.62h-12.23c.37-2.85.5-5.21.5-9.62v-13.53c0-1.49.19-6.15.31-8.07q.19-3.29.25-4.22c-1.37,4.84-1.99,7.08-2.79,9.31l-6.02,17.01c-1.55,4.41-2.36,7.14-2.67,9.12h-10.8Z"/>
    </g>
    <g>
      <path class="cls-1" d="M238.36,213.87l-7.68-10.51c18.28-13.36,28.14-26.11,30.13-38.98,2.79-18.02-10.14-35.66-23.82-54.33-11.31-15.44-23.01-31.4-27.14-49.34-4.83-20.99,1.67-40.85,19.87-60.71l9.59,8.79c-15.3,16.69-20.64,32.26-16.79,49,3.53,15.32,14.42,30.19,24.95,44.56,14.65,19.99,29.8,40.67,26.19,64.02-2.55,16.46-14.1,31.99-35.31,47.49Z"/>
      <path class="cls-1" d="M380.51,213.87l-7.68-10.51c18.28-13.36,28.14-26.11,30.13-38.98,2.79-18.02-10.14-35.66-23.82-54.33-11.31-15.44-23.01-31.4-27.14-49.34-4.83-20.99,1.67-40.85,19.87-60.71l9.59,8.79c-15.3,16.69-20.64,32.26-16.79,49,3.53,15.32,14.42,30.19,24.95,44.56,14.65,19.99,29.8,40.67,26.19,64.02-2.55,16.46-14.1,31.99-35.31,47.49Z"/>
      <path class="cls-1" d="M96.21,213.87l-7.68-10.51c18.28-13.36,28.14-26.11,30.13-38.98,2.79-18.02-10.14-35.66-23.82-54.33-11.31-15.44-23.01-31.4-27.14-49.34-4.83-20.99,1.67-40.85,19.88-60.71l9.59,8.79c-15.3,16.69-20.64,32.26-16.79,49,3.53,15.32,14.42,30.19,24.95,44.56,14.65,19.99,29.8,40.67,26.19,64.02-2.55,16.46-14.1,31.99-35.31,47.49Z"/>
      <path class="cls-1" d="M309.43,213.87l-7.68-10.51c18.28-13.36,28.14-26.11,30.13-38.98,2.79-18.02-10.14-35.66-23.82-54.33-11.31-15.44-23.01-31.4-27.14-49.34-4.83-20.99,1.67-40.85,19.87-60.71l9.59,8.79c-15.3,16.69-20.64,32.26-16.79,49,3.53,15.32,14.42,30.19,24.95,44.56,14.65,19.99,29.8,40.67,26.19,64.02-2.55,16.46-14.1,31.99-35.31,47.49Z"/>
      <path class="cls-1" d="M167.28,213.87l-7.68-10.51c18.28-13.36,28.14-26.11,30.13-38.98,2.79-18.02-10.14-35.66-23.82-54.33-11.31-15.44-23.01-31.4-27.14-49.34-4.83-20.99,1.67-40.85,19.88-60.71l9.59,8.79c-15.3,16.69-20.64,32.26-16.79,49,3.53,15.32,14.42,30.19,24.95,44.56,14.65,19.99,29.8,40.67,26.19,64.02-2.55,16.46-14.1,31.99-35.31,47.49Z"/>
    </g>
  </g>
</svg>