<?xml version="1.0" encoding="UTF-8"?>
<svg id="Layer_2" data-name="Layer 2" xmlns="http://www.w3.org/2000/svg" viewBox="0 0 101.53 97.15">
  <defs>
    <style>
      .cls-1 {
        fill: #000;
        stroke-width: 0px;
      }
    </style>
  </defs>
  <g id="Layer_1-2" data-name="Layer 1">
    <path class="cls-1" d="M78.39,97.15c-.83,0-1.67-.17-2.46-.52l-25.16-11.19-25.16,11.19c-1.98.88-4.28.64-6.03-.63s-2.69-3.38-2.47-5.54l2.87-27.39L1.56,42.6c-1.45-1.61-1.93-3.87-1.26-5.93.67-2.06,2.39-3.61,4.5-4.06l26.93-5.73L45.51,3.03c1.08-1.88,3.08-3.03,5.25-3.03s4.17,1.16,5.25,3.03l13.78,23.84,26.93,5.73c2.12.45,3.83,2,4.5,4.06.67,2.06.19,4.32-1.26,5.93l-18.42,20.47,2.87,27.39c.23,2.15-.71,4.26-2.47,5.54-1.05.77-2.3,1.16-3.57,1.16ZM17.59,42.29l13.2,14.68c1.15,1.28,1.7,2.98,1.52,4.69l-2.06,19.63,18.04-8.02c1.57-.7,3.36-.7,4.93,0l18.04,8.02-2.06-19.63c-.18-1.71.38-3.41,1.52-4.69l13.2-14.67-19.31-4.11c-1.68-.36-3.13-1.41-3.99-2.9l-9.88-17.09-9.88,17.09c-.86,1.49-2.31,2.54-3.99,2.9l-19.31,4.11Z"/>
  </g>
</svg>